<svg xmlns="http://www.w3.org/2000/svg" xmlns:xlink="http://www.w3.org/1999/xlink" width="1600" zoomAndPan="magnify" viewBox="0 0 1200 337.499995" height="450" preserveAspectRatio="xMidYMid meet" version="1.0"><defs><clipPath id="8e745f708b"><path d="M 0.886719 76.960938 L 1198.800781 76.960938 L 1198.800781 337 L 0.886719 337 Z M 0.886719 76.960938 " clip-rule="nonzero"/></clipPath><clipPath id="32598148b8"><path d="M 0.886719 50.09375 L 191.292969 50.09375 L 191.292969 104.046875 L 0.886719 104.046875 Z M 0.886719 50.09375 " clip-rule="nonzero"/></clipPath><clipPath id="ae2093c244"><path d="M 0.886719 62 L 191.292969 62 L 191.292969 104.046875 L 0.886719 104.046875 Z M 0.886719 62 " clip-rule="nonzero"/></clipPath><clipPath id="dc3197b0f2"><path d="M 179.917969 50.09375 L 442.71875 50.09375 L 442.71875 104.046875 L 179.917969 104.046875 Z M 179.917969 50.09375 " clip-rule="nonzero"/></clipPath><clipPath id="6752175e84"><path d="M 179.917969 62 L 442.71875 62 L 442.71875 104.046875 L 179.917969 104.046875 Z M 179.917969 62 " clip-rule="nonzero"/></clipPath><clipPath id="1abd9f0200"><path d="M 438.449219 50.09375 L 702.539062 50.09375 L 702.539062 104.046875 L 438.449219 104.046875 Z M 438.449219 50.09375 " clip-rule="nonzero"/></clipPath><clipPath id="7ede5452e4"><path d="M 438.449219 62 L 702.539062 62 L 702.539062 104.046875 L 438.449219 104.046875 Z M 438.449219 62 " clip-rule="nonzero"/></clipPath><clipPath id="66ce25aa18"><path d="M 691.414062 50.09375 L 954.214844 50.09375 L 954.214844 104.046875 L 691.414062 104.046875 Z M 691.414062 50.09375 " clip-rule="nonzero"/></clipPath><clipPath id="08383f6716"><path d="M 691.414062 62 L 954.214844 62 L 954.214844 104.046875 L 691.414062 104.046875 Z M 691.414062 62 " clip-rule="nonzero"/></clipPath><clipPath id="f858357ba2"><path d="M 949.699219 49.753906 L 1199.113281 49.753906 L 1199.113281 103.707031 L 949.699219 103.707031 Z M 949.699219 49.753906 " clip-rule="nonzero"/></clipPath><clipPath id="4e6d913440"><path d="M 949.699219 62 L 1199.113281 62 L 1199.113281 103.707031 L 949.699219 103.707031 Z M 949.699219 62 " clip-rule="nonzero"/></clipPath></defs><g clip-path="url(#8e745f708b)"><path fill="#c09fd1" d="M -60.09375 76.960938 L 1199.191406 76.960938 L 1199.191406 447.511719 L -60.09375 447.511719 Z M -60.09375 76.960938 " fill-opacity="1" fill-rule="nonzero"/></g><g clip-path="url(#32598148b8)"><path fill="#dec5ec" d="M 192.574219 61.574219 L 192.574219 92.960938 C 190.214844 94.140625 187.554688 94.808594 184.734375 94.808594 C 181.375 94.808594 178.234375 93.859375 175.566406 92.21875 C 172.554688 97.554688 166.835938 101.15625 160.277344 101.15625 C 150.589844 101.15625 142.738281 93.300781 142.738281 83.617188 C 142.738281 73.929688 150.589844 66.078125 160.277344 66.078125 C 163.640625 66.078125 166.78125 67.023438 169.449219 68.664062 C 172.457031 63.332031 178.175781 59.730469 184.734375 59.730469 C 187.554688 59.730469 190.214844 60.394531 192.574219 61.574219 Z M -19.367188 104.128906 L -44.238281 104.128906 C -47.390625 100.957031 -49.34375 96.589844 -49.34375 91.761719 C -49.34375 82.074219 -41.488281 74.222656 -31.800781 74.222656 C -30.8125 74.222656 -29.839844 74.308594 -28.894531 74.464844 C -26.949219 66.894531 -20.082031 61.300781 -11.902344 61.300781 C -2.21875 61.300781 5.636719 69.152344 5.636719 78.839844 C 5.636719 88.523438 -2.21875 96.378906 -11.902344 96.378906 C -12.894531 96.378906 -13.867188 96.292969 -14.8125 96.136719 C -15.601562 99.207031 -17.199219 101.949219 -19.367188 104.128906 Z M -72.796875 92.414062 L -72.796875 58.289062 C -71.492188 57.976562 -70.128906 57.8125 -68.726562 57.8125 C -59.039062 57.8125 -51.1875 65.664062 -51.1875 75.351562 C -51.1875 85.039062 -59.039062 92.890625 -68.726562 92.890625 C -70.128906 92.890625 -71.492188 92.726562 -72.796875 92.414062 Z M 127.003906 51.847656 C 136.691406 51.847656 144.542969 59.703125 144.542969 69.386719 C 144.542969 79.074219 136.691406 86.925781 127.003906 86.925781 C 126.039062 86.925781 125.09375 86.847656 124.167969 86.699219 C 122.070312 94.035156 115.3125 99.402344 107.304688 99.402344 C 98.726562 99.402344 91.582031 93.242188 90.0625 85.105469 C 89.542969 85.152344 89.015625 85.175781 88.480469 85.175781 C 78.792969 85.175781 70.941406 77.324219 70.941406 67.636719 C 70.941406 57.949219 78.792969 50.097656 88.480469 50.097656 C 97.058594 50.097656 104.199219 56.257812 105.71875 64.398438 C 106.242188 64.351562 106.769531 64.324219 107.304688 64.324219 C 108.269531 64.324219 109.21875 64.40625 110.140625 64.554688 C 112.238281 57.21875 118.996094 51.847656 127.003906 51.847656 Z M 48.203125 55.351562 C 57.890625 55.351562 65.742188 63.203125 65.742188 72.890625 C 65.742188 82.578125 57.890625 90.429688 48.203125 90.429688 C 45.992188 90.429688 43.875 90.019531 41.925781 89.273438 C 40.164062 97.097656 33.171875 102.941406 24.816406 102.941406 C 15.128906 102.941406 7.277344 95.089844 7.277344 85.402344 C 7.277344 75.714844 15.128906 67.863281 24.816406 67.863281 C 27.027344 67.863281 29.144531 68.273438 31.09375 69.023438 C 32.855469 61.195312 39.84375 55.351562 48.203125 55.351562 Z M 48.203125 55.351562 " fill-opacity="1" fill-rule="evenodd"/></g><g clip-path="url(#ae2093c244)"><path fill="#c1a0d2" d="M 192.574219 82.34375 L 192.574219 104.128906 L -72.796875 104.128906 L -72.796875 84.335938 C -71.304688 83.851562 -69.714844 83.585938 -68.058594 83.585938 C -67.566406 83.585938 -67.078125 83.613281 -66.59375 83.660156 C -66.664062 83.070312 -66.699219 82.472656 -66.699219 81.863281 C -66.699219 73.402344 -59.839844 66.539062 -51.375 66.539062 C -42.910156 66.539062 -36.050781 73.402344 -36.050781 81.863281 C -36.050781 82.9375 -36.160156 83.984375 -36.367188 84.992188 C -35.699219 84.902344 -35.019531 84.855469 -34.324219 84.855469 C -30.484375 84.855469 -26.972656 86.269531 -24.28125 88.605469 C -21.574219 84.285156 -16.769531 81.410156 -11.292969 81.410156 C -9.800781 81.410156 -8.359375 81.625 -6.992188 82.023438 C -5.171875 75.597656 0.742188 70.890625 7.75 70.890625 C 14.214844 70.890625 19.742188 74.890625 21.996094 80.550781 C 23.128906 80.285156 24.3125 80.140625 25.523438 80.140625 C 27.863281 80.140625 30.074219 80.664062 32.058594 81.601562 C 34.300781 75.921875 39.839844 71.902344 46.316406 71.902344 C 47.148438 71.902344 47.96875 71.972656 48.765625 72.101562 C 51.03125 66.464844 56.542969 62.488281 62.988281 62.488281 C 68.554688 62.488281 73.425781 65.453125 76.109375 69.890625 C 78.878906 67.132812 82.699219 65.429688 86.917969 65.429688 C 95.382812 65.429688 102.242188 72.292969 102.242188 80.757812 C 102.242188 81.621094 102.167969 82.472656 102.03125 83.296875 C 102.285156 83.285156 102.546875 83.28125 102.804688 83.28125 C 105.773438 83.28125 108.542969 84.125 110.886719 85.582031 C 111.617188 77.800781 118.167969 71.707031 126.144531 71.707031 C 127.671875 71.707031 129.144531 71.933594 130.535156 72.347656 C 132.785156 66.6875 138.316406 62.683594 144.777344 62.683594 C 153.242188 62.683594 160.101562 69.546875 160.101562 78.011719 C 160.101562 78.539062 160.074219 79.0625 160.023438 79.578125 C 160.871094 79.433594 161.738281 79.355469 162.625 79.355469 C 167.28125 79.355469 171.453125 81.433594 174.265625 84.710938 C 177.03125 82.003906 180.8125 80.335938 184.984375 80.335938 C 187.746094 80.335938 190.339844 81.066406 192.574219 82.34375 Z M 192.574219 82.34375 " fill-opacity="1" fill-rule="evenodd"/></g><g clip-path="url(#dc3197b0f2)"><path fill="#dec5ec" d="M 178.632812 61.574219 L 178.632812 92.960938 C 180.992188 94.140625 183.65625 94.808594 186.472656 94.808594 C 189.835938 94.808594 192.976562 93.859375 195.644531 92.21875 C 198.652344 97.554688 204.371094 101.15625 210.929688 101.15625 C 220.617188 101.15625 228.46875 93.300781 228.46875 83.617188 C 228.46875 73.929688 220.617188 66.078125 210.929688 66.078125 C 207.566406 66.078125 204.425781 67.023438 201.757812 68.664062 C 198.75 63.332031 193.03125 59.730469 186.472656 59.730469 C 183.65625 59.730469 180.992188 60.394531 178.632812 61.574219 Z M 390.574219 104.128906 L 415.445312 104.128906 C 418.601562 100.957031 420.550781 96.589844 420.550781 91.761719 C 420.550781 82.074219 412.699219 74.222656 403.011719 74.222656 C 402.019531 74.222656 401.046875 74.308594 400.101562 74.464844 C 398.15625 66.894531 391.289062 61.300781 383.113281 61.300781 C 373.425781 61.300781 365.574219 69.152344 365.574219 78.839844 C 365.574219 88.523438 373.425781 96.378906 383.113281 96.378906 C 384.101562 96.378906 385.074219 96.292969 386.019531 96.136719 C 386.808594 99.207031 388.40625 101.949219 390.574219 104.128906 Z M 444.003906 92.414062 L 444.003906 58.289062 C 442.699219 57.976562 441.335938 57.8125 439.933594 57.8125 C 430.25 57.8125 422.394531 65.664062 422.394531 75.351562 C 422.394531 85.039062 430.25 92.890625 439.933594 92.890625 C 441.335938 92.890625 442.699219 92.726562 444.003906 92.414062 Z M 244.203125 51.847656 C 234.515625 51.847656 226.664062 59.703125 226.664062 69.386719 C 226.664062 79.074219 234.515625 86.925781 244.203125 86.925781 C 245.167969 86.925781 246.117188 86.847656 247.039062 86.699219 C 249.136719 94.035156 255.894531 99.402344 263.902344 99.402344 C 272.484375 99.402344 279.625 93.242188 281.144531 85.105469 C 281.664062 85.152344 282.195312 85.175781 282.730469 85.175781 C 292.414062 85.175781 300.269531 77.324219 300.269531 67.636719 C 300.269531 57.949219 292.414062 50.097656 282.730469 50.097656 C 274.148438 50.097656 267.007812 56.257812 265.488281 64.398438 C 264.96875 64.351562 264.4375 64.324219 263.902344 64.324219 C 262.9375 64.324219 261.992188 64.40625 261.066406 64.554688 C 258.96875 57.21875 252.210938 51.847656 244.203125 51.847656 Z M 323.007812 55.351562 C 313.320312 55.351562 305.464844 63.203125 305.464844 72.890625 C 305.464844 82.578125 313.320312 90.429688 323.007812 90.429688 C 325.21875 90.429688 327.332031 90.019531 329.28125 89.273438 C 331.042969 97.097656 338.035156 102.941406 346.390625 102.941406 C 356.078125 102.941406 363.929688 95.089844 363.929688 85.402344 C 363.929688 75.714844 356.078125 67.863281 346.390625 67.863281 C 344.179688 67.863281 342.066406 68.273438 340.117188 69.023438 C 338.355469 61.195312 331.363281 55.351562 323.007812 55.351562 Z M 323.007812 55.351562 " fill-opacity="1" fill-rule="evenodd"/></g><g clip-path="url(#6752175e84)"><path fill="#c1a0d2" d="M 178.632812 82.34375 L 178.632812 104.128906 L 444.003906 104.128906 L 444.003906 84.335938 C 442.511719 83.851562 440.921875 83.585938 439.269531 83.585938 C 438.773438 83.585938 438.285156 83.613281 437.800781 83.660156 C 437.871094 83.070312 437.90625 82.472656 437.90625 81.863281 C 437.90625 73.398438 431.046875 66.539062 422.582031 66.539062 C 414.117188 66.539062 407.257812 73.398438 407.257812 81.863281 C 407.257812 82.9375 407.367188 83.984375 407.578125 84.992188 C 406.90625 84.902344 406.226562 84.855469 405.535156 84.855469 C 401.691406 84.855469 398.179688 86.269531 395.492188 88.605469 C 392.78125 84.285156 387.976562 81.410156 382.5 81.410156 C 381.007812 81.410156 379.566406 81.625 378.199219 82.023438 C 376.378906 75.597656 370.464844 70.890625 363.457031 70.890625 C 356.992188 70.890625 351.464844 74.890625 349.210938 80.550781 C 348.078125 80.285156 346.898438 80.140625 345.683594 80.140625 C 343.347656 80.140625 341.132812 80.664062 339.148438 81.601562 C 336.90625 75.921875 331.367188 71.902344 324.890625 71.902344 C 324.058594 71.902344 323.238281 71.972656 322.441406 72.101562 C 320.179688 66.464844 314.664062 62.488281 308.21875 62.488281 C 302.65625 62.488281 297.785156 65.453125 295.097656 69.890625 C 292.328125 67.132812 288.507812 65.429688 284.289062 65.429688 C 275.828125 65.429688 268.964844 72.292969 268.964844 80.757812 C 268.964844 81.621094 269.039062 82.472656 269.175781 83.296875 C 268.921875 83.285156 268.664062 83.28125 268.402344 83.28125 C 265.4375 83.28125 262.667969 84.125 260.320312 85.582031 C 259.589844 77.800781 253.039062 71.707031 245.0625 71.707031 C 243.539062 71.707031 242.0625 71.933594 240.675781 72.347656 C 238.421875 66.6875 232.894531 62.683594 226.429688 62.683594 C 217.964844 62.683594 211.105469 69.546875 211.105469 78.011719 C 211.105469 78.539062 211.132812 79.0625 211.183594 79.578125 C 210.339844 79.433594 209.46875 79.355469 208.582031 79.355469 C 203.925781 79.355469 199.753906 81.433594 196.941406 84.710938 C 194.179688 82.003906 190.394531 80.335938 186.222656 80.335938 C 183.460938 80.335938 180.871094 81.066406 178.632812 82.34375 Z M 178.632812 82.34375 " fill-opacity="1" fill-rule="evenodd"/></g><g clip-path="url(#1abd9f0200)"><path fill="#dec5ec" d="M 703.824219 61.574219 L 703.824219 92.960938 C 701.464844 94.140625 698.800781 94.808594 695.984375 94.808594 C 692.621094 94.808594 689.480469 93.859375 686.8125 92.21875 C 683.804688 97.554688 678.085938 101.15625 671.527344 101.15625 C 661.839844 101.15625 653.984375 93.300781 653.984375 83.617188 C 653.984375 73.929688 661.839844 66.078125 671.527344 66.078125 C 674.886719 66.078125 678.027344 67.023438 680.695312 68.664062 C 683.707031 63.332031 689.425781 59.730469 695.984375 59.730469 C 698.800781 59.730469 701.464844 60.394531 703.824219 61.574219 Z M 491.882812 104.128906 L 467.007812 104.128906 C 463.855469 100.957031 461.90625 96.589844 461.90625 91.761719 C 461.90625 82.074219 469.757812 74.222656 479.445312 74.222656 C 480.4375 74.222656 481.40625 74.308594 482.355469 74.464844 C 484.296875 66.894531 491.167969 61.300781 499.34375 61.300781 C 509.03125 61.300781 516.882812 69.152344 516.882812 78.839844 C 516.882812 88.523438 509.03125 96.378906 499.34375 96.378906 C 498.351562 96.378906 497.382812 96.292969 496.433594 96.136719 C 495.648438 99.207031 494.046875 101.949219 491.882812 104.128906 Z M 438.449219 92.414062 L 438.449219 58.289062 C 439.757812 57.976562 441.121094 57.8125 442.519531 57.8125 C 452.207031 57.8125 460.058594 65.664062 460.058594 75.351562 C 460.058594 85.039062 452.207031 92.890625 442.519531 92.890625 C 441.121094 92.890625 439.757812 92.726562 438.449219 92.414062 Z M 638.253906 51.847656 C 647.941406 51.847656 655.792969 59.703125 655.792969 69.386719 C 655.792969 79.074219 647.941406 86.925781 638.253906 86.925781 C 637.289062 86.925781 636.339844 86.847656 635.417969 86.699219 C 633.316406 94.035156 626.5625 99.402344 618.550781 99.402344 C 609.972656 99.402344 602.832031 93.242188 601.3125 85.105469 C 600.789062 85.152344 600.261719 85.175781 599.726562 85.175781 C 590.039062 85.175781 582.1875 77.324219 582.1875 67.636719 C 582.1875 57.949219 590.039062 50.097656 599.726562 50.097656 C 608.308594 50.097656 615.445312 56.257812 616.964844 64.398438 C 617.488281 64.351562 618.015625 64.324219 618.550781 64.324219 C 619.519531 64.324219 620.464844 64.40625 621.386719 64.554688 C 623.488281 57.21875 630.242188 51.847656 638.253906 51.847656 Z M 559.449219 55.351562 C 569.136719 55.351562 576.988281 63.203125 576.988281 72.890625 C 576.988281 82.578125 569.136719 90.429688 559.449219 90.429688 C 557.238281 90.429688 555.125 90.019531 553.175781 89.273438 C 551.414062 97.097656 544.421875 102.941406 536.0625 102.941406 C 526.378906 102.941406 518.523438 95.089844 518.523438 85.402344 C 518.523438 75.714844 526.378906 67.863281 536.0625 67.863281 C 538.273438 67.863281 540.390625 68.273438 542.339844 69.023438 C 544.101562 61.195312 551.09375 55.351562 559.449219 55.351562 Z M 559.449219 55.351562 " fill-opacity="1" fill-rule="evenodd"/></g><g clip-path="url(#7ede5452e4)"><path fill="#c1a0d2" d="M 703.824219 82.34375 L 703.824219 104.128906 L 438.449219 104.128906 L 438.449219 84.335938 C 439.945312 83.851562 441.535156 83.585938 443.1875 83.585938 C 443.683594 83.585938 444.171875 83.613281 444.652344 83.660156 C 444.585938 83.070312 444.546875 82.472656 444.546875 81.863281 C 444.546875 73.402344 451.410156 66.539062 459.875 66.539062 C 468.339844 66.539062 475.199219 73.402344 475.199219 81.863281 C 475.199219 82.9375 475.089844 83.984375 474.878906 84.992188 C 475.546875 84.902344 476.230469 84.855469 476.921875 84.855469 C 480.765625 84.855469 484.273438 86.269531 486.964844 88.605469 C 489.675781 84.285156 494.480469 81.410156 499.957031 81.410156 C 501.449219 81.410156 502.890625 81.625 504.253906 82.023438 C 506.078125 75.597656 511.988281 70.890625 519 70.890625 C 525.460938 70.890625 530.992188 74.890625 533.242188 80.550781 C 534.375 80.285156 535.558594 80.140625 536.773438 80.140625 C 539.109375 80.140625 541.324219 80.664062 543.304688 81.601562 C 545.550781 75.921875 551.089844 71.902344 557.566406 71.902344 C 558.398438 71.902344 559.214844 71.972656 560.011719 72.101562 C 562.277344 66.464844 567.792969 62.488281 574.238281 62.488281 C 579.800781 62.488281 584.671875 65.453125 587.355469 69.890625 C 590.128906 67.132812 593.949219 65.429688 598.164062 65.429688 C 606.628906 65.429688 613.492188 72.292969 613.492188 80.757812 C 613.492188 81.621094 613.417969 82.472656 613.277344 83.296875 C 613.535156 83.285156 613.792969 83.28125 614.054688 83.28125 C 617.019531 83.28125 619.789062 84.125 622.136719 85.582031 C 622.867188 77.800781 629.417969 71.707031 637.394531 71.707031 C 638.917969 71.707031 640.390625 71.933594 641.78125 72.347656 C 644.035156 66.6875 649.5625 62.683594 656.027344 62.683594 C 664.488281 62.683594 671.351562 69.546875 671.351562 78.011719 C 671.351562 78.539062 671.324219 79.0625 671.273438 79.578125 C 672.117188 79.433594 672.988281 79.355469 673.875 79.355469 C 678.53125 79.355469 682.703125 81.433594 685.515625 84.710938 C 688.277344 82.003906 692.0625 80.335938 696.234375 80.335938 C 698.996094 80.335938 701.585938 81.066406 703.824219 82.34375 Z M 703.824219 82.34375 " fill-opacity="1" fill-rule="evenodd"/></g><g clip-path="url(#66ce25aa18)"><path fill="#dec5ec" d="M 690.128906 61.574219 L 690.128906 92.960938 C 692.488281 94.140625 695.148438 94.808594 697.96875 94.808594 C 701.332031 94.808594 704.46875 93.859375 707.140625 92.21875 C 710.148438 97.554688 715.867188 101.15625 722.425781 101.15625 C 732.113281 101.15625 739.964844 93.300781 739.964844 83.617188 C 739.964844 73.929688 732.113281 66.078125 722.425781 66.078125 C 719.0625 66.078125 715.921875 67.023438 713.253906 68.664062 C 710.246094 63.332031 704.527344 59.730469 697.96875 59.730469 C 695.148438 59.730469 692.488281 60.394531 690.128906 61.574219 Z M 902.070312 104.128906 L 926.941406 104.128906 C 930.097656 100.957031 932.046875 96.589844 932.046875 91.761719 C 932.046875 82.074219 924.191406 74.222656 914.507812 74.222656 C 913.515625 74.222656 912.542969 74.308594 911.597656 74.464844 C 909.652344 66.894531 902.785156 61.300781 894.605469 61.300781 C 884.921875 61.300781 877.070312 69.152344 877.070312 78.839844 C 877.070312 88.523438 884.921875 96.378906 894.605469 96.378906 C 895.597656 96.378906 896.570312 96.292969 897.515625 96.136719 C 898.304688 99.207031 899.902344 101.949219 902.070312 104.128906 Z M 955.5 92.414062 L 955.5 58.289062 C 954.195312 57.976562 952.832031 57.8125 951.429688 57.8125 C 941.742188 57.8125 933.890625 65.664062 933.890625 75.351562 C 933.890625 85.039062 941.742188 92.890625 951.429688 92.890625 C 952.832031 92.890625 954.195312 92.726562 955.5 92.414062 Z M 755.699219 51.847656 C 746.011719 51.847656 738.160156 59.703125 738.160156 69.386719 C 738.160156 79.074219 746.011719 86.925781 755.699219 86.925781 C 756.664062 86.925781 757.609375 86.847656 758.535156 86.699219 C 760.632812 94.035156 767.390625 99.402344 775.398438 99.402344 C 783.980469 99.402344 791.121094 93.242188 792.640625 85.105469 C 793.160156 85.152344 793.691406 85.175781 794.222656 85.175781 C 803.910156 85.175781 811.765625 77.324219 811.765625 67.636719 C 811.765625 57.949219 803.910156 50.097656 794.222656 50.097656 C 785.644531 50.097656 778.503906 56.257812 776.984375 64.398438 C 776.460938 64.351562 775.933594 64.324219 775.398438 64.324219 C 774.433594 64.324219 773.488281 64.40625 772.5625 64.554688 C 770.464844 57.21875 763.707031 51.847656 755.699219 51.847656 Z M 834.5 55.351562 C 824.816406 55.351562 816.960938 63.203125 816.960938 72.890625 C 816.960938 82.578125 824.816406 90.429688 834.5 90.429688 C 836.710938 90.429688 838.828125 90.019531 840.777344 89.273438 C 842.539062 97.097656 849.53125 102.941406 857.886719 102.941406 C 867.574219 102.941406 875.425781 95.089844 875.425781 85.402344 C 875.425781 75.714844 867.574219 67.863281 857.886719 67.863281 C 855.675781 67.863281 853.5625 68.273438 851.609375 69.023438 C 849.851562 61.195312 842.859375 55.351562 834.5 55.351562 Z M 834.5 55.351562 " fill-opacity="1" fill-rule="evenodd"/></g><g clip-path="url(#08383f6716)"><path fill="#c1a0d2" d="M 690.128906 82.34375 L 690.128906 104.128906 L 955.5 104.128906 L 955.5 84.335938 C 954.007812 83.851562 952.417969 83.585938 950.761719 83.585938 C 950.269531 83.585938 949.78125 83.613281 949.296875 83.660156 C 949.367188 83.070312 949.402344 82.472656 949.402344 81.863281 C 949.402344 73.398438 942.542969 66.539062 934.078125 66.539062 C 925.613281 66.539062 918.753906 73.398438 918.753906 81.863281 C 918.753906 82.9375 918.863281 83.984375 919.074219 84.992188 C 918.402344 84.902344 917.722656 84.855469 917.027344 84.855469 C 913.1875 84.855469 909.675781 86.269531 906.988281 88.605469 C 904.277344 84.285156 899.472656 81.410156 893.996094 81.410156 C 892.503906 81.410156 891.0625 81.625 889.695312 82.023438 C 887.875 75.597656 881.960938 70.890625 874.953125 70.890625 C 868.488281 70.890625 862.960938 74.890625 860.707031 80.550781 C 859.574219 80.285156 858.390625 80.140625 857.179688 80.140625 C 854.839844 80.140625 852.628906 80.664062 850.644531 81.601562 C 848.402344 75.921875 842.863281 71.902344 836.386719 71.902344 C 835.554688 71.902344 834.734375 71.972656 833.9375 72.101562 C 831.671875 66.464844 826.160156 62.488281 819.714844 62.488281 C 814.152344 62.488281 809.277344 65.453125 806.59375 69.890625 C 803.824219 67.132812 800.003906 65.429688 795.785156 65.429688 C 787.320312 65.429688 780.460938 72.292969 780.460938 80.757812 C 780.460938 81.621094 780.535156 82.472656 780.671875 83.296875 C 780.417969 83.285156 780.15625 83.28125 779.898438 83.28125 C 776.929688 83.28125 774.164062 84.125 771.816406 85.582031 C 771.085938 77.800781 764.535156 71.707031 756.558594 71.707031 C 755.035156 71.707031 753.558594 71.933594 752.171875 72.347656 C 749.917969 66.6875 744.390625 62.683594 737.925781 62.683594 C 729.460938 62.683594 722.601562 69.546875 722.601562 78.011719 C 722.601562 78.539062 722.628906 79.0625 722.679688 79.578125 C 721.832031 79.433594 720.964844 79.355469 720.078125 79.355469 C 715.421875 79.355469 711.25 81.433594 708.4375 84.710938 C 705.671875 82.003906 701.890625 80.335938 697.71875 80.335938 C 694.957031 80.335938 692.363281 81.066406 690.128906 82.34375 Z M 690.128906 82.34375 " fill-opacity="1" fill-rule="evenodd"/></g><g clip-path="url(#f858357ba2)"><path fill="#dec5ec" d="M 1215.070312 61.238281 L 1215.070312 92.621094 C 1212.710938 93.800781 1210.050781 94.46875 1207.230469 94.46875 C 1203.871094 94.46875 1200.730469 93.519531 1198.0625 91.878906 C 1195.050781 97.214844 1189.332031 100.816406 1182.773438 100.816406 C 1173.085938 100.816406 1165.234375 92.960938 1165.234375 83.277344 C 1165.234375 73.589844 1173.085938 65.738281 1182.773438 65.738281 C 1186.136719 65.738281 1189.277344 66.683594 1191.945312 68.324219 C 1194.953125 62.992188 1200.671875 59.390625 1207.230469 59.390625 C 1210.050781 59.390625 1212.710938 60.054688 1215.070312 61.238281 Z M 1003.128906 103.789062 L 978.257812 103.789062 C 975.105469 100.617188 973.152344 96.25 973.152344 91.421875 C 973.152344 81.734375 981.007812 73.882812 990.695312 73.882812 C 991.683594 73.882812 992.65625 73.96875 993.601562 74.125 C 995.546875 66.554688 1002.414062 60.960938 1010.59375 60.960938 C 1020.277344 60.960938 1028.132812 68.8125 1028.132812 78.5 C 1028.132812 88.183594 1020.277344 96.039062 1010.59375 96.039062 C 1009.601562 96.039062 1008.628906 95.953125 1007.683594 95.796875 C 1006.894531 98.867188 1005.296875 101.613281 1003.128906 103.789062 Z M 949.699219 92.074219 L 949.699219 57.949219 C 951.003906 57.636719 952.367188 57.472656 953.769531 57.472656 C 963.457031 57.472656 971.308594 65.324219 971.308594 75.011719 C 971.308594 84.699219 963.457031 92.550781 953.769531 92.550781 C 952.367188 92.550781 951.003906 92.386719 949.699219 92.074219 Z M 1149.5 51.507812 C 1159.1875 51.507812 1167.039062 59.363281 1167.039062 69.046875 C 1167.039062 78.734375 1159.1875 86.589844 1149.5 86.589844 C 1148.535156 86.589844 1147.589844 86.507812 1146.664062 86.359375 C 1144.566406 93.695312 1137.808594 99.0625 1129.800781 99.0625 C 1121.222656 99.0625 1114.078125 92.902344 1112.558594 84.765625 C 1112.039062 84.8125 1111.511719 84.835938 1110.976562 84.835938 C 1101.289062 84.835938 1093.4375 76.984375 1093.4375 67.296875 C 1093.4375 57.609375 1101.289062 49.757812 1110.976562 49.757812 C 1119.554688 49.757812 1126.695312 55.917969 1128.214844 64.058594 C 1128.738281 64.011719 1129.265625 63.984375 1129.800781 63.984375 C 1130.765625 63.984375 1131.714844 64.066406 1132.636719 64.214844 C 1134.734375 56.878906 1141.492188 51.507812 1149.5 51.507812 Z M 1070.699219 55.011719 C 1080.386719 55.011719 1088.238281 62.863281 1088.238281 72.550781 C 1088.238281 82.238281 1080.386719 90.089844 1070.699219 90.089844 C 1068.488281 90.089844 1066.371094 89.679688 1064.421875 88.933594 C 1062.660156 96.757812 1055.667969 102.601562 1047.3125 102.601562 C 1037.625 102.601562 1029.773438 94.75 1029.773438 85.0625 C 1029.773438 75.375 1037.625 67.523438 1047.3125 67.523438 C 1049.523438 67.523438 1051.640625 67.933594 1053.589844 68.683594 C 1055.351562 60.855469 1062.339844 55.011719 1070.699219 55.011719 Z M 1070.699219 55.011719 " fill-opacity="1" fill-rule="evenodd"/></g><g clip-path="url(#4e6d913440)"><path fill="#c1a0d2" d="M 1215.070312 82.003906 L 1215.070312 103.789062 L 949.699219 103.789062 L 949.699219 83.996094 C 951.191406 83.511719 952.78125 83.246094 954.4375 83.246094 C 954.929688 83.246094 955.417969 83.273438 955.902344 83.320312 C 955.832031 82.730469 955.796875 82.132812 955.796875 81.523438 C 955.796875 73.0625 962.65625 66.199219 971.121094 66.199219 C 979.585938 66.199219 986.445312 73.0625 986.445312 81.523438 C 986.445312 82.597656 986.335938 83.644531 986.128906 84.652344 C 986.796875 84.5625 987.476562 84.519531 988.171875 84.519531 C 992.011719 84.519531 995.523438 85.929688 998.214844 88.265625 C 1000.921875 83.945312 1005.726562 81.070312 1011.203125 81.070312 C 1012.695312 81.070312 1014.136719 81.285156 1015.503906 81.683594 C 1017.324219 75.257812 1023.238281 70.550781 1030.246094 70.550781 C 1036.710938 70.550781 1042.238281 74.550781 1044.492188 80.210938 C 1045.625 79.945312 1046.808594 79.800781 1048.019531 79.800781 C 1050.359375 79.800781 1052.570312 80.324219 1054.554688 81.261719 C 1056.796875 75.582031 1062.335938 71.5625 1068.8125 71.5625 C 1069.644531 71.5625 1070.464844 71.632812 1071.261719 71.761719 C 1073.527344 66.128906 1079.039062 62.148438 1085.484375 62.148438 C 1091.050781 62.148438 1095.921875 65.113281 1098.605469 69.550781 C 1101.375 66.792969 1105.195312 65.089844 1109.414062 65.089844 C 1117.878906 65.089844 1124.738281 71.953125 1124.738281 80.417969 C 1124.738281 81.28125 1124.664062 82.132812 1124.527344 82.960938 C 1124.78125 82.945312 1125.042969 82.941406 1125.300781 82.941406 C 1128.269531 82.941406 1131.039062 83.785156 1133.382812 85.242188 C 1134.113281 77.460938 1140.664062 71.367188 1148.640625 71.367188 C 1150.167969 71.367188 1151.640625 71.59375 1153.03125 72.007812 C 1155.28125 66.347656 1160.8125 62.34375 1167.273438 62.34375 C 1175.738281 62.34375 1182.597656 69.207031 1182.597656 77.671875 C 1182.597656 78.199219 1182.570312 78.722656 1182.519531 79.238281 C 1183.367188 79.09375 1184.234375 79.015625 1185.121094 79.015625 C 1189.777344 79.015625 1193.949219 81.09375 1196.761719 84.375 C 1199.527344 81.664062 1203.308594 79.996094 1207.480469 79.996094 C 1210.242188 79.996094 1212.835938 80.726562 1215.070312 82.003906 Z M 1215.070312 82.003906 " fill-opacity="1" fill-rule="evenodd"/></g></svg>