<?xml version="1.0" encoding="UTF-8"?>
<svg xmlns="http://www.w3.org/2000/svg" xmlns:xlink="http://www.w3.org/1999/xlink" width="331.85pt" height="365pt" viewBox="0 0 331.85 365" version="1.1">
<defs>
<clipPath id="clip1">
  <path d="M 103 132 L 331.851563 132 L 331.851563 309 L 103 309 Z M 103 132 "/>
</clipPath>
</defs>
<g id="surface1">
<path style=" stroke:none;fill-rule:nonzero;fill:rgb(55.699158%,55.699158%,55.699158%);fill-opacity:1;" d="M 150.898438 76.238281 C 154.003906 74.554688 157.054688 72.773438 160.234375 71.21875 C 167.140625 75.34375 174.109375 79.460938 180.277344 84.65625 C 184.753906 88.566406 188.800781 93.183594 191.050781 98.753906 C 192.546875 102.460938 193.589844 106.457031 193.496094 110.472656 C 192.789063 116.070313 191.097656 121.648438 187.820313 126.300781 C 185.878906 123.296875 184.148438 120.144531 181.8125 117.414063 C 174.367188 108.308594 164.09375 102.109375 153.699219 96.910156 C 145.953125 93.054688 137.917969 89.820313 130.035156 86.265625 C 137.015625 82.976563 144.121094 79.9375 150.898438 76.238281 "/>
<path style=" stroke:none;fill-rule:nonzero;fill:rgb(55.699158%,55.699158%,55.699158%);fill-opacity:1;" d="M 66.632813 109.710938 C 67.425781 112.695313 67.898438 115.769531 69.011719 118.660156 C 69.871094 120.921875 70.925781 123.109375 72.089844 125.234375 C 76.960938 133.445313 83.894531 140.234375 91.46875 145.953125 C 96.484375 149.722656 101.773438 153.125 107.277344 156.132813 C 114.382813 159.785156 121.882813 162.570313 129.214844 165.714844 C 115.417969 171.515625 101.46875 177.21875 88.8125 185.308594 C 82.132813 181.574219 75.285156 178.113281 68.171875 175.28125 C 61.375 172.632813 54.359375 170.292969 47.058594 169.609375 C 40.875 169.007813 34.636719 168.746094 28.425781 169.078125 C 22.339844 169.324219 16.207031 169.753906 10.289063 171.277344 C 10.183594 212.113281 10.289063 252.949219 10.238281 293.792969 C 10.234375 295.128906 10.265625 296.476563 10.320313 297.820313 C 44.15625 297.796875 78 297.886719 111.835938 297.777344 C 100.027344 292.675781 88.347656 286.804688 78.546875 278.34375 C 73.9375 274.359375 69.761719 269.75 66.921875 264.328125 C 65.097656 260.882813 63.914063 257.078125 63.703125 253.175781 C 64.535156 247.335938 65.835938 241.417969 68.96875 236.339844 C 70.304688 238.617188 71.472656 241.007813 73.078125 243.121094 C 77.078125 248.507813 82.292969 252.851563 87.71875 256.738281 C 97.765625 263.855469 108.757813 269.503906 119.851563 274.777344 C 126.996094 278.117188 134.214844 281.292969 141.460938 284.402344 C 142.171875 284.714844 142.867188 285.074219 143.554688 285.449219 C 140.964844 286.664063 138.234375 287.546875 135.589844 288.632813 C 127.691406 291.761719 119.878906 295.121094 111.949219 298.175781 C 104.640625 301.042969 97.335938 303.910156 90.03125 306.777344 C 88.390625 307.394531 86.78125 308.289063 84.984375 308.257813 C 56.671875 308.21875 28.359375 308.308594 0.046875 308.214844 C -0.0351563 260.054688 0.0117188 211.890625 0.0273438 163.726563 C 7.683594 160.164063 16.1875 158.929688 24.546875 158.367188 C 35.191406 157.828125 45.902344 158.617188 56.359375 160.695313 C 63.421875 162.046875 70.257813 164.425781 76.777344 167.429688 C 79.074219 168.398438 81.199219 169.734375 83.550781 170.574219 C 81.980469 169.0625 80.097656 167.933594 78.5 166.457031 C 73.378906 162.128906 69.246094 156.398438 67.582031 149.839844 C 65.929688 143.933594 66.691406 137.753906 66.570313 131.710938 C 66.523438 128.191406 66.277344 124.671875 66.515625 121.15625 C 66.542969 117.34375 66.191406 113.511719 66.632813 109.710938 "/>
<path style=" stroke:none;fill-rule:nonzero;fill:rgb(26.298523%,46.699524%,73.699951%);fill-opacity:1;" d="M 187.820313 126.300781 C 191.097656 121.648438 192.789063 116.070313 193.496094 110.472656 C 193.828125 111.871094 193.929688 113.3125 193.90625 114.75 C 193.878906 123.289063 193.980469 131.835938 193.78125 140.378906 C 193.835938 145.03125 193.210938 149.761719 191.378906 154.070313 C 189.15625 159.4375 185.234375 163.945313 180.75 167.566406 C 174.742188 172.519531 167.757813 176.0625 160.972656 179.804688 C 155.222656 182.675781 149.730469 186.035156 143.90625 188.761719 C 139.558594 190.921875 135.058594 192.738281 130.703125 194.886719 C 116.980469 200.851563 103.136719 206.792969 90.53125 214.945313 C 82.058594 220.546875 73.945313 227.328125 68.96875 236.339844 C 65.835938 241.417969 64.535156 247.335938 63.703125 253.175781 C 63.351563 249.886719 63.652344 246.578125 63.4375 243.28125 C 63.207031 238.882813 63.816406 234.492188 63.527344 230.097656 C 63.371094 224.183594 63.171875 218.113281 65.027344 212.414063 C 66.828125 206.671875 70.199219 201.527344 74.289063 197.15625 C 78.570313 192.574219 83.558594 188.703125 88.8125 185.308594 C 101.46875 177.21875 115.417969 171.515625 129.214844 165.714844 C 139.378906 161.554688 149.796875 157.777344 159.1875 151.988281 C 164.589844 148.742188 169.851563 145.214844 174.664063 141.117188 C 179.730469 136.859375 184.457031 132.039063 187.820313 126.300781 "/>
<g clip-path="url(#clip1)" clip-rule="nonzero">
<path style=" stroke:none;fill-rule:nonzero;fill:rgb(55.699158%,55.699158%,55.699158%);fill-opacity:1;" d="M 225.941406 134.347656 C 232.207031 132.042969 239.171875 132.195313 245.546875 133.972656 C 255.277344 136.691406 263.9375 142.453125 271.15625 149.414063 C 265.261719 150.757813 259.53125 153.28125 255.109375 157.476563 C 249.550781 162.535156 245.925781 169.332031 243.390625 176.320313 C 238.375 190.441406 236.890625 205.449219 234.855469 220.203125 C 233.589844 229.433594 232.359375 238.742188 229.578125 247.664063 C 227.941406 253.113281 225.199219 258.144531 222.285156 263.003906 C 216.539063 272.5 208.878906 280.902344 199.648438 287.109375 C 194.105469 290.8125 188.050781 293.722656 181.796875 296.015625 C 179.773438 296.789063 177.671875 297.351563 175.679688 298.214844 C 179.488281 298.191406 183.300781 298.152344 187.105469 298.023438 C 189.582031 297.964844 192.121094 298.199219 194.527344 297.449219 C 205.570313 294.148438 215.230469 287.179688 222.898438 278.6875 C 231.335938 269.410156 237.671875 258.351563 242.160156 246.683594 C 247.804688 232.101563 249.335938 216.386719 253.878906 201.484375 C 255.75 195.40625 258.027344 189.328125 261.796875 184.144531 C 264.792969 180.03125 268.898438 176.535156 273.847656 175.070313 C 280.660156 173.046875 288.191406 173.839844 294.570313 176.914063 C 300.265625 179.554688 305.3125 183.574219 309.226563 188.46875 C 297.925781 191.9375 288.703125 200.691406 283.578125 211.222656 C 280.921875 216.25 279.476563 221.773438 277.636719 227.128906 C 273.519531 239.835938 269.640625 252.71875 263.527344 264.652344 C 259.097656 273.421875 253.398438 281.679688 245.964844 288.179688 C 241.34375 292.316406 236.070313 295.710938 230.402344 298.230469 C 234.199219 298.261719 238 298.074219 241.800781 297.988281 C 243.839844 298.019531 245.558594 296.8125 247.316406 295.945313 C 256.3125 291.09375 263.25 283.207031 268.628906 274.652344 C 273.554688 266.695313 277.5625 258.183594 280.695313 249.371094 C 282.558594 244.261719 284.332031 239.113281 286.527344 234.136719 C 288.871094 228.988281 291.5 223.820313 295.574219 219.8125 C 298.945313 216.285156 303.574219 213.910156 308.472656 213.570313 C 314.097656 213.160156 320.164063 214.058594 324.699219 217.664063 C 327.695313 220.03125 330.003906 223.183594 331.847656 226.507813 C 326.25 228.066406 321.09375 231.078125 316.988281 235.195313 C 310.675781 241.464844 306.441406 249.425781 302.578125 257.351563 C 297.796875 267.058594 293.660156 277.144531 287.730469 286.242188 C 282.929688 293.699219 276.554688 300.441406 268.402344 304.203125 C 262.339844 307.046875 255.597656 308.128906 248.9375 308.085938 C 242.664063 308.417969 236.378906 308.105469 230.105469 308.382813 C 199.691406 308.410156 169.28125 308.382813 138.867188 308.386719 C 130.078125 308.121094 121.28125 308.320313 112.488281 308.25 C 109.398438 308.183594 106.300781 308.40625 103.214844 308.113281 C 104.511719 307.351563 105.933594 306.84375 107.339844 306.34375 C 122.8125 300.503906 138.632813 295.519531 153.667969 288.578125 C 165.773438 282.96875 177.421875 275.933594 186.816406 266.347656 C 190.261719 262.714844 193.542969 258.867188 196.144531 254.574219 C 200.125 247.804688 201.929688 240.003906 202.777344 232.261719 C 204.957031 211.59375 201.441406 190.816406 203.398438 170.140625 C 204.09375 163.1875 205.574219 156.210938 208.738281 149.9375 C 212.339844 142.90625 218.480469 137.085938 225.941406 134.347656 "/>
</g>
<path style=" stroke:none;fill-rule:nonzero;fill:rgb(55.699158%,55.699158%,55.699158%);fill-opacity:1;" d="M 143.90625 188.761719 C 149.730469 186.035156 155.226563 182.675781 160.972656 179.804688 C 171.082031 185.515625 180.769531 192.695313 187.050781 202.640625 C 191.753906 210.019531 194.207031 218.738281 194.410156 227.460938 C 194.742188 232.828125 193.917969 238.238281 192.183594 243.320313 C 190.574219 239.703125 188.992188 236.039063 186.679688 232.796875 C 179.375 222.171875 168.414063 214.832031 157.339844 208.609375 C 150.273438 204.628906 143.027344 200.96875 135.726563 197.433594 C 134.054688 196.578125 132.316406 195.855469 130.703125 194.886719 C 135.058594 192.738281 139.558594 190.921875 143.90625 188.761719 "/>
<path style=" stroke:none;fill-rule:nonzero;fill:rgb(0.799561%,0.799561%,0.799561%);fill-opacity:1;" d="M 126.839844 209.289063 C 130.492188 208.871094 134.257813 208.90625 137.839844 209.828125 C 144.921875 211.582031 151.308594 216.109375 155.183594 222.3125 C 159.007813 228.210938 160.523438 235.566406 159.3125 242.496094 C 157.511719 254.128906 147.820313 263.957031 136.242188 265.996094 C 129.792969 267.183594 122.929688 266.15625 117.191406 262.945313 C 111.707031 259.925781 107.230469 255.105469 104.703125 249.367188 C 101.707031 242.730469 101.449219 234.933594 103.90625 228.085938 C 107.347656 218.238281 116.503906 210.71875 126.839844 209.285156 L 126.839844 209.289063 "/>
<path style=" stroke:none;fill-rule:nonzero;fill:rgb(0.799561%,0.799561%,0.799561%);fill-opacity:1;" d="M 39.410156 323.617188 C 41.773438 321.308594 45.207031 320.5625 48.410156 320.660156 C 51.742188 320.539063 55.074219 321.421875 57.957031 323.085938 C 57.96875 325.515625 57.648438 327.933594 57.648438 330.371094 C 57.667969 331.28125 57.546875 332.195313 57.332031 333.085938 C 55.027344 331.140625 52.367188 329.046875 49.144531 329.40625 C 46.503906 329.226563 45 332.644531 46.351563 334.699219 C 47.46875 336.308594 49.402344 336.984375 51.070313 337.855469 C 53.902344 339.21875 56.734375 341.042969 58.21875 343.921875 C 60.558594 348.386719 60.125 353.929688 57.902344 358.355469 C 56.335938 361.507813 53.273438 363.796875 49.828125 364.488281 C 45.367188 365.410156 40.539063 365.125 36.382813 363.175781 C 35.707031 362.992188 35.558594 362.269531 35.632813 361.667969 C 35.769531 358.566406 35.859375 355.46875 35.929688 352.367188 C 37.761719 353.707031 39.5625 355.234375 41.867188 355.65625 C 43.921875 356.007813 46.359375 356.335938 48.109375 354.945313 C 49.808594 353.523438 49.792969 350.582031 47.984375 349.253906 C 45.410156 347.332031 42.164063 346.472656 39.753906 344.289063 C 37.28125 342.265625 35.898438 339.160156 35.65625 336.007813 C 35.199219 331.644531 36.082031 326.730469 39.410156 323.617188 "/>
<path style=" stroke:none;fill-rule:nonzero;fill:rgb(0.799561%,0.799561%,0.799561%);fill-opacity:1;" d="M 180.449219 325.726563 C 182.636719 325.667969 184.859375 326.488281 186.402344 328.054688 C 188.605469 330.191406 189.492188 333.277344 189.984375 336.214844 C 190.796875 341.582031 190.789063 347.167969 189.15625 352.386719 C 188.390625 354.535156 187.367188 356.730469 185.546875 358.183594 C 182.65625 360.472656 178.140625 360.390625 175.378906 357.9375 C 172.953125 355.832031 171.808594 352.652344 171.261719 349.578125 C 170.300781 344.148438 170.425781 338.480469 171.910156 333.152344 C 172.84375 329.789063 175.324219 326.507813 178.949219 325.90625 C 179.441406 325.796875 179.945313 325.742188 180.449219 325.726563 Z M 180.5625 320.65625 C 179.511719 320.660156 178.464844 320.777344 177.441406 320.996094 C 173.59375 321.78125 170.273438 324.363281 168.3125 327.734375 C 164.960938 333.355469 164.417969 340.164063 164.824219 346.5625 C 165.277344 351.550781 166.539063 356.832031 170.09375 360.566406 C 175.152344 366.277344 185.003906 366.457031 190.4375 361.1875 C 193.316406 358.410156 194.898438 354.566406 195.65625 350.691406 C 196.632813 345.71875 196.601563 340.558594 195.714844 335.574219 C 194.863281 331.085938 192.957031 326.570313 189.335938 323.628906 C 186.871094 321.621094 183.714844 320.644531 180.5625 320.65625 "/>
<path style=" stroke:none;fill-rule:nonzero;fill:rgb(0.799561%,0.799561%,0.799561%);fill-opacity:1;" d="M 0.0273438 321.703125 C 3.699219 321.46875 7.386719 321.640625 11.0625 321.441406 C 10.910156 330.550781 10.835938 339.664063 10.914063 348.777344 C 11.1875 352.179688 10.839844 355.601563 11.160156 359 C 11.238281 360.679688 11.199219 362.363281 11.1875 364.046875 C 7.535156 364.039063 3.886719 364.078125 0.238281 364.199219 C -0.0195313 360.589844 0.175781 356.960938 0.113281 353.347656 C 0.46875 346.945313 0.25 340.53125 0.3125 334.125 C 0.390625 329.976563 0.101563 325.847656 0.0273438 321.703125 "/>
<path style=" stroke:none;fill-rule:nonzero;fill:rgb(0.799561%,0.799561%,0.799561%);fill-opacity:1;" d="M 267.105469 326.207031 C 268.753906 332.871094 270.1875 339.589844 271.761719 346.269531 C 268.542969 346.285156 265.328125 346.289063 262.113281 346.261719 C 263.714844 339.5625 265.460938 332.898438 267.105469 326.207031 Z M 270.195313 321.410156 C 268.105469 321.421875 266.023438 321.632813 263.929688 321.589844 C 263.214844 323.527344 262.863281 325.570313 262.300781 327.554688 C 259.074219 339.742188 255.648438 351.886719 252.3125 364.042969 C 254.164063 364 256.019531 363.976563 257.871094 363.796875 C 258.851563 359.5625 259.769531 355.308594 260.828125 351.09375 C 264.847656 350.945313 268.875 351.023438 272.890625 351.046875 C 273.929688 355.414063 274.859375 359.800781 275.898438 364.164063 C 277.949219 364.023438 280.039063 364.234375 282.050781 363.722656 C 278.648438 350.132813 274.933594 336.609375 271.722656 322.96875 C 271.535156 322.449219 271.574219 321.769531 271.101563 321.421875 C 270.800781 321.414063 270.496094 321.410156 270.195313 321.410156 "/>
<path style=" stroke:none;fill-rule:nonzero;fill:rgb(0.799561%,0.799561%,0.799561%);fill-opacity:1;" d="M 280.679688 321.605469 C 285.796875 321.472656 290.925781 321.738281 296.039063 321.445313 C 298.910156 321.457031 301.789063 321.410156 304.660156 321.460938 C 304.574219 323.230469 304.652344 325.015625 304.453125 326.785156 C 301.371094 326.882813 298.304688 326.5625 295.230469 326.683594 C 295.230469 339.128906 295.09375 351.585938 295.492188 364.019531 C 293.457031 364.046875 291.429688 364.148438 289.398438 364.195313 C 289.308594 359.695313 289.601563 355.207031 289.550781 350.710938 C 289.550781 344.554688 289.550781 338.394531 289.550781 332.238281 C 289.527344 330.378906 289.625 328.507813 289.390625 326.65625 C 286.316406 326.839844 283.238281 326.824219 280.164063 326.867188 C 280.257813 325.140625 279.875 323.128906 280.679688 321.605469 "/>
<path style=" stroke:none;fill-rule:nonzero;fill:rgb(0.799561%,0.799561%,0.799561%);fill-opacity:1;" d="M 315.238281 326.480469 C 316.222656 329.621094 316.765625 332.886719 317.558594 336.085938 C 318.316406 339.480469 319.183594 342.847656 319.867188 346.261719 C 316.65625 346.285156 313.4375 346.289063 310.226563 346.269531 C 311.90625 339.679688 313.429688 333.035156 315.238281 326.480469 Z M 319.394531 321.394531 C 317.078125 321.40625 314.769531 321.554688 312.460938 321.609375 C 311.992188 321.589844 311.855469 322.191406 311.707031 322.53125 C 309 333.285156 305.988281 343.957031 303.046875 354.648438 C 302.25 357.789063 301.144531 360.851563 300.503906 364.023438 C 301.914063 364.019531 303.320313 363.949219 304.742188 363.941406 C 305.175781 363.835938 306.027344 364.023438 306.109375 363.394531 C 307.09375 359.28125 307.910156 355.132813 308.992188 351.046875 C 313 350.996094 317.007813 351.027344 321.015625 351.027344 C 322.070313 355.40625 322.980469 359.816406 324.0625 364.183594 C 326.09375 364.050781 328.140625 364.121094 330.167969 363.855469 C 328.875 357.859375 327.128906 351.96875 325.632813 346.027344 C 323.433594 337.847656 321.582031 329.570313 319.394531 321.394531 "/>
<path style=" stroke:none;fill-rule:nonzero;fill:rgb(0.799561%,0.799561%,0.799561%);fill-opacity:1;" d="M 18.335938 321.617188 C 22.007813 321.582031 25.675781 321.585938 29.339844 321.445313 C 29.226563 324.410156 29.402344 327.386719 29.117188 330.355469 C 29.105469 336.386719 29.109375 342.417969 29.121094 348.449219 C 29.433594 351.804688 29.199219 355.179688 29.332031 358.546875 C 29.492188 360.363281 29.417969 362.195313 29.4375 364.019531 C 25.761719 364.0625 22.089844 364.082031 18.414063 364.1875 C 18.429688 358.820313 18.285156 353.449219 18.53125 348.089844 C 18.546875 339.261719 18.582031 330.4375 18.335938 321.617188 "/>
<path style=" stroke:none;fill-rule:nonzero;fill:rgb(0.799561%,0.799561%,0.799561%);fill-opacity:1;" d="M 64.867188 321.59375 C 72.300781 321.566406 79.738281 321.5625 87.171875 321.597656 C 87.179688 324.542969 87.128906 327.496094 86.863281 330.4375 C 83.058594 330.558594 79.25 330.476563 75.441406 330.484375 C 75.386719 332.980469 75.425781 335.484375 75.417969 337.988281 C 79.039063 338.140625 82.644531 337.683594 86.273438 337.835938 C 86.386719 340.695313 86.0625 343.542969 85.914063 346.398438 C 82.503906 346.859375 79.039063 346.507813 75.605469 346.617188 C 75.605469 349.355469 75.597656 352.089844 75.613281 354.828125 C 79.722656 354.621094 83.863281 354.816406 87.960938 354.351563 C 88.367188 356.277344 87.855469 358.238281 87.851563 360.183594 C 87.753906 361.480469 87.921875 362.863281 87.402344 364.09375 C 85.851563 364.316406 84.273438 363.941406 82.714844 364.066406 C 76.828125 363.96875 70.945313 364.230469 65.0625 364.183594 C 64.78125 360.453125 65.171875 356.710938 65.144531 352.972656 C 65.089844 343.671875 65.304688 334.363281 64.867188 325.070313 C 64.816406 323.910156 64.832031 322.753906 64.867188 321.59375 "/>
<path style=" stroke:none;fill-rule:nonzero;fill:rgb(0.799561%,0.799561%,0.799561%);fill-opacity:1;" d="M 105.101563 330.15625 C 106.597656 330.125 108.160156 330.175781 109.078125 331.496094 C 110.304688 333.632813 110.261719 336.640625 108.652344 338.570313 C 107.34375 340.003906 105.296875 340.042969 103.507813 340.128906 C 103.578125 336.808594 103.640625 333.488281 103.648438 330.164063 C 104.105469 330.183594 104.601563 330.164063 105.101563 330.15625 Z M 106.089844 321.441406 C 101.726563 321.730469 97.347656 321.46875 92.980469 321.617188 C 93.226563 327.921875 93.574219 334.222656 93.5 340.53125 C 93.582031 346.066406 93.273438 351.585938 93.359375 357.117188 C 93.460938 359.46875 93.035156 361.804688 93.226563 364.15625 C 96.734375 364.328125 100.242188 364.058594 103.753906 364.054688 C 103.785156 358.832031 103.390625 353.613281 103.535156 348.390625 C 104.039063 348.375 104.554688 348.347656 105.0625 348.324219 C 106.839844 352.90625 108.632813 357.476563 110.152344 362.148438 C 110.410156 362.835938 110.566406 363.625 111.113281 364.164063 C 112.054688 364.328125 113.015625 364.183594 113.96875 364.175781 C 116.605469 363.988281 119.265625 364.070313 121.882813 363.617188 C 121.496094 362.527344 121.039063 361.472656 120.527344 360.433594 C 118.128906 355.578125 116.152344 350.527344 114.109375 345.515625 C 117.855469 343.75 119.617188 339.550781 119.914063 335.632813 C 120.28125 331.558594 119.488281 327.058594 116.558594 324.023438 C 113.734375 321.460938 109.675781 321.460938 106.089844 321.441406 "/>
<path style=" stroke:none;fill-rule:nonzero;fill:rgb(0.799561%,0.799561%,0.799561%);fill-opacity:1;" d="M 139.851563 321.617188 C 141.824219 321.613281 143.792969 321.359375 145.769531 321.460938 C 145.839844 327.878906 145.40625 334.289063 145.644531 340.714844 C 149.226563 335.632813 152.464844 330.304688 155.792969 325.054688 C 156.59375 323.933594 157.027344 322.484375 158.117188 321.621094 C 160.085938 321.613281 162.058594 321.34375 164.027344 321.519531 C 162.097656 324.925781 159.679688 328.035156 157.546875 331.320313 C 155.472656 334.382813 153.472656 337.496094 151.449219 340.59375 C 155.863281 348.09375 160.496094 355.46875 165.320313 362.71875 C 165.578125 363.101563 165.585938 363.589844 165.570313 364.046875 C 163.347656 364.023438 161.128906 364.167969 158.90625 364.199219 C 154.574219 356.835938 150.265625 349.460938 145.636719 342.285156 C 145.410156 349.542969 145.976563 356.800781 145.863281 364.054688 C 143.925781 364.015625 141.984375 364.167969 140.042969 364.171875 C 140.191406 352.773438 140.074219 341.375 140.113281 329.976563 C 140.191406 327.183594 139.765625 324.40625 139.851563 321.617188 "/>
<path style=" stroke:none;fill-rule:nonzero;fill:rgb(0.799561%,0.799561%,0.799561%);fill-opacity:1;" d="M 201.730469 321.628906 C 203.824219 321.605469 205.90625 321.363281 208 321.464844 C 208.039063 326.445313 207.578125 331.417969 207.703125 336.40625 C 207.472656 341.039063 207.605469 345.6875 207.574219 350.332031 C 207.605469 353.121094 207.457031 355.921875 207.742188 358.707031 C 210.414063 358.699219 213.089844 358.742188 215.769531 358.6875 C 217.5625 358.496094 219.371094 358.496094 221.175781 358.546875 C 221.257813 360.371094 221.140625 362.199219 220.929688 364.011719 C 216.449219 364.203125 211.957031 363.90625 207.484375 364.1875 C 205.640625 364.199219 203.792969 364.242188 201.953125 364.152344 C 201.757813 361.800781 202.101563 359.464844 202.027344 357.117188 C 201.972656 350.835938 202.214844 344.558594 202.144531 338.269531 C 201.992188 332.726563 202.078125 327.167969 201.730469 321.628906 "/>
<path style=" stroke:none;fill-rule:nonzero;fill:rgb(0.799561%,0.799561%,0.799561%);fill-opacity:1;" d="M 225.5 322.09375 C 225.621094 321.976563 225.859375 321.742188 225.980469 321.625 C 227.835938 321.574219 229.695313 321.335938 231.558594 321.515625 C 231.464844 327.988281 231.234375 334.457031 231.351563 340.933594 C 235.523438 334.53125 239.675781 328.113281 243.660156 321.589844 C 245.671875 321.679688 247.675781 321.320313 249.683594 321.519531 C 248.664063 323.808594 246.945313 325.695313 245.648438 327.828125 C 242.765625 332.027344 239.960938 336.277344 237.207031 340.5625 C 240.871094 346.992188 244.867188 353.226563 248.882813 359.441406 C 249.734375 360.808594 250.757813 362.066406 251.472656 363.515625 C 251.378906 363.648438 251.199219 363.910156 251.109375 364.039063 C 248.929688 364.039063 246.757813 364.179688 244.585938 364.179688 C 240.316406 356.789063 235.945313 349.449219 231.363281 342.253906 C 231.175781 346.582031 231.527344 350.902344 231.46875 355.230469 C 231.410156 358.171875 231.824219 361.109375 231.65625 364.054688 C 229.707031 364.03125 227.765625 364.132813 225.824219 364.21875 C 225.664063 359.714844 225.976563 355.214844 225.894531 350.710938 C 225.824219 341.167969 226.113281 331.613281 225.5 322.09375 "/>
<path style=" stroke:none;fill-rule:nonzero;fill:rgb(26.298523%,46.699524%,73.699951%);fill-opacity:1;" d="M 190.882813 15.828125 C 194.15625 11.175781 195.851563 5.597656 196.558594 0 C 196.890625 1.398438 196.988281 2.839844 196.964844 4.273438 C 196.9375 12.816406 197.039063 21.359375 196.839844 29.902344 C 196.894531 34.558594 196.273438 39.289063 194.441406 43.597656 C 192.21875 48.964844 188.296875 53.472656 183.8125 57.089844 C 177.804688 62.046875 170.816406 65.585938 164.03125 69.328125 C 158.285156 72.203125 152.789063 75.558594 146.964844 78.289063 C 142.621094 80.445313 138.117188 82.265625 133.765625 84.410156 C 120.039063 90.378906 106.195313 96.316406 93.59375 104.472656 C 85.117188 110.070313 77.007813 116.851563 72.03125 125.867188 C 68.894531 130.941406 67.59375 136.859375 66.761719 142.699219 C 66.410156 139.414063 66.714844 136.101563 66.496094 132.808594 C 66.269531 128.410156 66.878906 124.019531 66.589844 119.625 C 66.429688 113.710938 66.234375 107.636719 68.089844 101.941406 C 69.886719 96.195313 73.261719 91.050781 77.347656 86.683594 C 81.632813 82.101563 86.617188 78.230469 91.871094 74.832031 C 104.53125 66.742188 118.476563 61.039063 132.277344 55.238281 C 142.4375 51.078125 152.855469 47.300781 162.246094 41.515625 C 167.652344 38.265625 172.914063 34.738281 177.722656 30.644531 C 182.789063 26.386719 187.515625 21.5625 190.882813 15.828125 "/>
</g>
</svg>
