<svg xmlns="http://www.w3.org/2000/svg" xmlns:xlink="http://www.w3.org/1999/xlink" width="1600" zoomAndPan="magnify" viewBox="0 0 1200 337.499995" height="450" preserveAspectRatio="xMidYMid meet" version="1.0"><defs><clipPath id="0905de97f9"><path d="M 952.277344 45.382812 L 1199.113281 45.382812 L 1199.113281 96.90625 L 952.277344 96.90625 Z M 952.277344 45.382812 " clip-rule="nonzero"/></clipPath><clipPath id="dfa2db447b"><path d="M 952.277344 45.382812 L 1199.113281 45.382812 L 1199.113281 86 L 952.277344 86 Z M 952.277344 45.382812 " clip-rule="nonzero"/></clipPath><clipPath id="9b8058b5be"><path d="M 712.167969 45.382812 L 963.140625 45.382812 L 963.140625 96.90625 L 712.167969 96.90625 Z M 712.167969 45.382812 " clip-rule="nonzero"/></clipPath><clipPath id="6c15b34d1f"><path d="M 712.167969 45.382812 L 963.140625 45.382812 L 963.140625 86 L 712.167969 86 Z M 712.167969 45.382812 " clip-rule="nonzero"/></clipPath><clipPath id="4106e8e008"><path d="M 464.042969 45.382812 L 716.242188 45.382812 L 716.242188 96.90625 L 464.042969 96.90625 Z M 464.042969 45.382812 " clip-rule="nonzero"/></clipPath><clipPath id="f9e899ce1d"><path d="M 464.042969 45.382812 L 716.242188 45.382812 L 716.242188 86 L 464.042969 86 Z M 464.042969 45.382812 " clip-rule="nonzero"/></clipPath><clipPath id="f5fa2afee2"><path d="M 223.695312 45.382812 L 474.667969 45.382812 L 474.667969 96.90625 L 223.695312 96.90625 Z M 223.695312 45.382812 " clip-rule="nonzero"/></clipPath><clipPath id="f76f7e0115"><path d="M 223.695312 45.382812 L 474.667969 45.382812 L 474.667969 86 L 223.695312 86 Z M 223.695312 45.382812 " clip-rule="nonzero"/></clipPath><clipPath id="1a05f6c1e8"><path d="M 0.886719 45.707031 L 228.007812 45.707031 L 228.007812 97.230469 L 0.886719 97.230469 Z M 0.886719 45.707031 " clip-rule="nonzero"/></clipPath><clipPath id="51c9efb89e"><path d="M 0.886719 45.707031 L 228.007812 45.707031 L 228.007812 86 L 0.886719 86 Z M 0.886719 45.707031 " clip-rule="nonzero"/></clipPath><clipPath id="bf5ee4015c"><path d="M 0.886719 0 L 1199.113281 0 L 1199.113281 49.671875 L 0.886719 49.671875 Z M 0.886719 0 " clip-rule="nonzero"/></clipPath></defs><g clip-path="url(#0905de97f9)"><path fill="#dec5ec" d="M 951.050781 85.941406 L 951.050781 55.96875 C 953.304688 54.839844 955.847656 54.203125 958.539062 54.203125 C 961.75 54.203125 964.75 55.109375 967.296875 56.675781 C 970.171875 51.582031 975.632812 48.144531 981.898438 48.144531 C 991.148438 48.144531 998.648438 55.644531 998.648438 64.894531 C 998.648438 74.144531 991.148438 81.644531 981.898438 81.644531 C 978.6875 81.644531 975.6875 80.738281 973.140625 79.171875 C 970.265625 84.265625 964.804688 87.707031 958.539062 87.707031 C 955.847656 87.707031 953.304688 87.070312 951.050781 85.941406 Z M 1153.453125 45.300781 L 1177.207031 45.300781 C 1180.21875 48.332031 1182.082031 52.503906 1182.082031 57.113281 C 1182.082031 66.363281 1174.582031 73.863281 1165.332031 73.863281 C 1164.386719 73.863281 1163.457031 73.78125 1162.554688 73.632812 C 1160.699219 80.863281 1154.136719 86.207031 1146.328125 86.207031 C 1137.078125 86.207031 1129.578125 78.707031 1129.578125 69.453125 C 1129.578125 60.203125 1137.078125 52.703125 1146.328125 52.703125 C 1147.273438 52.703125 1148.203125 52.785156 1149.105469 52.9375 C 1149.859375 50.003906 1151.386719 47.382812 1153.453125 45.300781 Z M 1204.480469 56.492188 L 1204.480469 89.082031 C 1203.234375 89.378906 1201.933594 89.535156 1200.59375 89.535156 C 1191.34375 89.535156 1183.84375 82.035156 1183.84375 72.785156 C 1183.84375 63.535156 1191.34375 56.035156 1200.59375 56.035156 C 1201.933594 56.035156 1203.234375 56.195312 1204.480469 56.492188 Z M 1013.671875 95.230469 C 1004.421875 95.230469 996.921875 87.730469 996.921875 78.480469 C 996.921875 69.230469 1004.421875 61.730469 1013.671875 61.730469 C 1014.59375 61.730469 1015.5 61.808594 1016.378906 61.949219 C 1018.382812 54.945312 1024.835938 49.816406 1032.484375 49.816406 C 1040.679688 49.816406 1047.5 55.699219 1048.949219 63.472656 C 1049.449219 63.425781 1049.953125 63.402344 1050.464844 63.402344 C 1059.714844 63.402344 1067.214844 70.902344 1067.214844 80.152344 C 1067.214844 89.402344 1059.714844 96.902344 1050.464844 96.902344 C 1042.269531 96.902344 1035.453125 91.019531 1034 83.246094 C 1033.5 83.292969 1032.996094 83.316406 1032.484375 83.316406 C 1031.5625 83.316406 1030.660156 83.238281 1029.777344 83.097656 C 1027.773438 90.101562 1021.320312 95.230469 1013.671875 95.230469 Z M 1088.929688 91.886719 C 1079.675781 91.886719 1072.179688 84.386719 1072.179688 75.136719 C 1072.179688 65.886719 1079.675781 58.386719 1088.929688 58.386719 C 1091.039062 58.386719 1093.058594 58.777344 1094.921875 59.492188 C 1096.601562 52.019531 1103.28125 46.4375 1111.261719 46.4375 C 1120.511719 46.4375 1128.011719 53.9375 1128.011719 63.1875 C 1128.011719 72.4375 1120.511719 79.9375 1111.261719 79.9375 C 1109.148438 79.9375 1107.128906 79.542969 1105.265625 78.832031 C 1103.585938 86.304688 1096.910156 91.886719 1088.929688 91.886719 Z M 1088.929688 91.886719 " fill-opacity="1" fill-rule="evenodd"/></g><g clip-path="url(#dfa2db447b)"><path fill="#c1a0d2" d="M 951.050781 66.105469 L 951.050781 45.300781 L 1204.480469 45.300781 L 1204.480469 64.207031 C 1203.054688 64.667969 1201.535156 64.921875 1199.957031 64.921875 C 1199.484375 64.921875 1199.019531 64.894531 1198.558594 64.851562 C 1198.625 65.414062 1198.65625 65.984375 1198.65625 66.566406 C 1198.65625 74.648438 1192.105469 81.203125 1184.023438 81.203125 C 1175.9375 81.203125 1169.386719 74.648438 1169.386719 66.566406 C 1169.386719 65.542969 1169.492188 64.542969 1169.691406 63.578125 C 1169.054688 63.664062 1168.402344 63.707031 1167.742188 63.707031 C 1164.070312 63.707031 1160.71875 62.359375 1158.152344 60.128906 C 1155.5625 64.253906 1150.972656 67 1145.746094 67 C 1144.316406 67 1142.941406 66.792969 1141.636719 66.414062 C 1139.898438 72.550781 1134.253906 77.046875 1127.558594 77.046875 C 1121.386719 77.046875 1116.105469 73.226562 1113.953125 67.820312 C 1112.871094 68.074219 1111.742188 68.210938 1110.585938 68.210938 C 1108.351562 68.210938 1106.238281 67.710938 1104.34375 66.816406 C 1102.203125 72.242188 1096.914062 76.078125 1090.730469 76.078125 C 1089.933594 76.078125 1089.152344 76.011719 1088.390625 75.890625 C 1086.226562 81.269531 1080.960938 85.070312 1074.808594 85.070312 C 1069.492188 85.070312 1064.839844 82.238281 1062.277344 78 C 1059.628906 80.632812 1055.984375 82.257812 1051.957031 82.257812 C 1043.871094 82.257812 1037.320312 75.707031 1037.320312 67.625 C 1037.320312 66.796875 1037.390625 65.984375 1037.523438 65.195312 C 1037.277344 65.207031 1037.03125 65.214844 1036.78125 65.214844 C 1033.949219 65.214844 1031.304688 64.410156 1029.0625 63.015625 C 1028.367188 70.449219 1022.109375 76.265625 1014.492188 76.265625 C 1013.035156 76.265625 1011.628906 76.050781 1010.300781 75.65625 C 1008.148438 81.0625 1002.871094 84.882812 996.699219 84.882812 C 988.617188 84.882812 982.0625 78.328125 982.0625 70.246094 C 982.0625 69.742188 982.089844 69.242188 982.140625 68.75 C 981.332031 68.886719 980.5 68.960938 979.652344 68.960938 C 975.207031 68.960938 971.222656 66.976562 968.539062 63.84375 C 965.898438 66.429688 962.285156 68.023438 958.300781 68.023438 C 955.664062 68.023438 953.1875 67.328125 951.050781 66.105469 Z M 951.050781 66.105469 " fill-opacity="1" fill-rule="evenodd"/></g><g clip-path="url(#9b8058b5be)"><path fill="#dec5ec" d="M 964.367188 85.941406 L 964.367188 55.96875 C 962.113281 54.839844 959.574219 54.203125 956.878906 54.203125 C 953.671875 54.203125 950.671875 55.109375 948.121094 56.675781 C 945.25 51.582031 939.789062 48.144531 933.523438 48.144531 C 924.273438 48.144531 916.773438 55.644531 916.773438 64.894531 C 916.773438 74.144531 924.273438 81.644531 933.523438 81.644531 C 936.734375 81.644531 939.734375 80.738281 942.28125 79.171875 C 945.15625 84.265625 950.617188 87.707031 956.878906 87.707031 C 959.574219 87.707031 962.113281 87.070312 964.367188 85.941406 Z M 761.964844 45.300781 L 738.214844 45.300781 C 735.199219 48.332031 733.339844 52.503906 733.339844 57.113281 C 733.339844 66.363281 740.839844 73.863281 750.089844 73.863281 C 751.035156 73.863281 751.964844 73.78125 752.867188 73.632812 C 754.722656 80.863281 761.285156 86.207031 769.09375 86.207031 C 778.34375 86.207031 785.839844 78.707031 785.839844 69.453125 C 785.839844 60.203125 778.34375 52.703125 769.09375 52.703125 C 768.144531 52.703125 767.21875 52.785156 766.3125 52.9375 C 765.5625 50.003906 764.035156 47.382812 761.964844 45.300781 Z M 710.941406 56.492188 L 710.941406 89.082031 C 712.1875 89.378906 713.488281 89.535156 714.828125 89.535156 C 724.078125 89.535156 731.578125 82.035156 731.578125 72.785156 C 731.578125 63.535156 724.078125 56.035156 714.828125 56.035156 C 713.488281 56.035156 712.1875 56.195312 710.941406 56.492188 Z M 901.75 95.230469 C 911 95.230469 918.5 87.730469 918.5 78.480469 C 918.5 69.230469 911 61.730469 901.75 61.730469 C 900.828125 61.730469 899.921875 61.808594 899.039062 61.949219 C 897.035156 54.945312 890.582031 49.816406 882.933594 49.816406 C 874.742188 49.816406 867.921875 55.699219 866.472656 63.472656 C 865.972656 63.425781 865.46875 63.402344 864.957031 63.402344 C 855.707031 63.402344 848.207031 70.902344 848.207031 80.152344 C 848.207031 89.402344 855.707031 96.902344 864.957031 96.902344 C 873.152344 96.902344 879.96875 91.019531 881.421875 83.246094 C 881.917969 83.292969 882.425781 83.316406 882.933594 83.316406 C 883.855469 83.316406 884.761719 83.238281 885.644531 83.097656 C 887.648438 90.101562 894.101562 95.230469 901.75 95.230469 Z M 826.492188 91.886719 C 835.742188 91.886719 843.242188 84.386719 843.242188 75.136719 C 843.242188 65.886719 835.742188 58.386719 826.492188 58.386719 C 824.382812 58.386719 822.359375 58.777344 820.5 59.492188 C 818.816406 52.019531 812.140625 46.4375 804.160156 46.4375 C 794.910156 46.4375 787.410156 53.9375 787.410156 63.1875 C 787.410156 72.4375 794.910156 79.9375 804.160156 79.9375 C 806.269531 79.9375 808.292969 79.542969 810.152344 78.832031 C 811.835938 86.304688 818.511719 91.886719 826.492188 91.886719 Z M 826.492188 91.886719 " fill-opacity="1" fill-rule="evenodd"/></g><g clip-path="url(#6c15b34d1f)"><path fill="#c1a0d2" d="M 964.367188 66.105469 L 964.367188 45.300781 L 710.941406 45.300781 L 710.941406 64.207031 C 712.367188 64.667969 713.886719 64.921875 715.464844 64.921875 C 715.9375 64.921875 716.402344 64.894531 716.863281 64.851562 C 716.796875 65.414062 716.761719 65.984375 716.761719 66.566406 C 716.761719 74.648438 723.316406 81.203125 731.398438 81.203125 C 739.480469 81.203125 746.035156 74.648438 746.035156 66.566406 C 746.035156 65.542969 745.929688 64.542969 745.726562 63.578125 C 746.367188 63.664062 747.019531 63.707031 747.679688 63.707031 C 751.347656 63.707031 754.703125 62.359375 757.269531 60.128906 C 759.859375 64.253906 764.445312 67 769.675781 67 C 771.101562 67 772.480469 66.792969 773.78125 66.414062 C 775.523438 72.550781 781.167969 77.046875 787.863281 77.046875 C 794.035156 77.046875 799.316406 73.226562 801.464844 67.820312 C 802.546875 68.074219 803.675781 68.210938 804.835938 68.210938 C 807.066406 68.210938 809.183594 67.710938 811.074219 66.816406 C 813.21875 72.242188 818.507812 76.078125 824.691406 76.078125 C 825.488281 76.078125 826.269531 76.011719 827.03125 75.890625 C 829.195312 81.269531 834.460938 85.070312 840.613281 85.070312 C 845.929688 85.070312 850.578125 82.238281 853.144531 78 C 855.789062 80.632812 859.4375 82.257812 863.464844 82.257812 C 871.546875 82.257812 878.101562 75.707031 878.101562 67.625 C 878.101562 66.796875 878.03125 65.984375 877.898438 65.195312 C 878.144531 65.207031 878.390625 65.214844 878.636719 65.214844 C 881.472656 65.214844 884.117188 64.410156 886.359375 63.015625 C 887.054688 70.449219 893.3125 76.265625 900.925781 76.265625 C 902.382812 76.265625 903.792969 76.050781 905.117188 75.65625 C 907.269531 81.0625 912.550781 84.882812 918.722656 84.882812 C 926.804688 84.882812 933.355469 78.328125 933.355469 70.246094 C 933.355469 69.742188 933.332031 69.242188 933.28125 68.75 C 934.089844 68.886719 934.921875 68.960938 935.765625 68.960938 C 940.214844 68.960938 944.199219 66.976562 946.882812 63.84375 C 949.523438 66.429688 953.136719 68.023438 957.121094 68.023438 C 959.757812 68.023438 962.230469 67.328125 964.367188 66.105469 Z M 964.367188 66.105469 " fill-opacity="1" fill-rule="evenodd"/></g><g clip-path="url(#4106e8e008)"><path fill="#dec5ec" d="M 462.816406 85.941406 L 462.816406 55.96875 C 465.070312 54.839844 467.613281 54.203125 470.304688 54.203125 C 473.515625 54.203125 476.511719 55.109375 479.0625 56.675781 C 481.933594 51.582031 487.394531 48.144531 493.660156 48.144531 C 502.910156 48.144531 510.410156 55.644531 510.410156 64.894531 C 510.410156 74.144531 502.910156 81.644531 493.660156 81.644531 C 490.449219 81.644531 487.449219 80.738281 484.902344 79.171875 C 482.027344 84.265625 476.566406 87.707031 470.304688 87.707031 C 467.613281 87.707031 465.070312 87.070312 462.816406 85.941406 Z M 665.21875 45.300781 L 688.972656 45.300781 C 691.984375 48.332031 693.84375 52.503906 693.84375 57.113281 C 693.84375 66.363281 686.34375 73.863281 677.09375 73.863281 C 676.148438 73.863281 675.222656 73.78125 674.316406 73.632812 C 672.460938 80.863281 665.898438 86.207031 658.089844 86.207031 C 648.839844 86.207031 641.34375 78.707031 641.34375 69.453125 C 641.34375 60.203125 648.839844 52.703125 658.089844 52.703125 C 659.039062 52.703125 659.964844 52.785156 660.871094 52.9375 C 661.621094 50.003906 663.148438 47.382812 665.21875 45.300781 Z M 716.242188 56.492188 L 716.242188 89.082031 C 714.996094 89.378906 713.695312 89.535156 712.359375 89.535156 C 703.105469 89.535156 695.609375 82.035156 695.609375 72.785156 C 695.609375 63.535156 703.105469 56.035156 712.359375 56.035156 C 713.695312 56.035156 714.996094 56.195312 716.242188 56.492188 Z M 525.433594 95.230469 C 516.183594 95.230469 508.683594 87.730469 508.683594 78.480469 C 508.683594 69.230469 516.183594 61.730469 525.433594 61.730469 C 526.355469 61.730469 527.261719 61.808594 528.144531 61.949219 C 530.148438 54.945312 536.601562 49.816406 544.25 49.816406 C 552.441406 49.816406 559.261719 55.699219 560.714844 63.472656 C 561.210938 63.425781 561.714844 63.402344 562.226562 63.402344 C 571.476562 63.402344 578.976562 70.902344 578.976562 80.152344 C 578.976562 89.402344 571.476562 96.902344 562.226562 96.902344 C 554.035156 96.902344 547.214844 91.019531 545.761719 83.246094 C 545.265625 83.292969 544.761719 83.316406 544.25 83.316406 C 543.328125 83.316406 542.421875 83.238281 541.539062 83.097656 C 539.535156 90.101562 533.085938 95.230469 525.433594 95.230469 Z M 600.691406 91.886719 C 591.441406 91.886719 583.941406 84.386719 583.941406 75.136719 C 583.941406 65.886719 591.441406 58.386719 600.691406 58.386719 C 602.804688 58.386719 604.824219 58.777344 606.683594 59.492188 C 608.367188 52.019531 615.042969 46.4375 623.023438 46.4375 C 632.273438 46.4375 639.773438 53.9375 639.773438 63.1875 C 639.773438 72.4375 632.273438 79.9375 623.023438 79.9375 C 620.914062 79.9375 618.894531 79.542969 617.03125 78.832031 C 615.347656 86.304688 608.671875 91.886719 600.691406 91.886719 Z M 600.691406 91.886719 " fill-opacity="1" fill-rule="evenodd"/></g><g clip-path="url(#f9e899ce1d)"><path fill="#c1a0d2" d="M 462.816406 66.105469 L 462.816406 45.300781 L 716.242188 45.300781 L 716.242188 64.207031 C 714.820312 64.667969 713.300781 64.921875 711.71875 64.921875 C 711.246094 64.921875 710.78125 64.894531 710.320312 64.851562 C 710.386719 65.414062 710.421875 65.984375 710.421875 66.566406 C 710.421875 74.648438 703.867188 81.203125 695.785156 81.203125 C 687.703125 81.203125 681.148438 74.648438 681.148438 66.566406 C 681.148438 65.542969 681.253906 64.542969 681.457031 63.578125 C 680.816406 63.664062 680.164062 63.707031 679.503906 63.707031 C 675.835938 63.707031 672.480469 62.359375 669.914062 60.128906 C 667.324219 64.253906 662.738281 67 657.507812 67 C 656.082031 67 654.703125 66.792969 653.402344 66.414062 C 651.660156 72.550781 646.015625 77.046875 639.320312 77.046875 C 633.148438 77.046875 627.871094 73.226562 625.71875 67.820312 C 624.636719 68.074219 623.507812 68.210938 622.347656 68.210938 C 620.117188 68.210938 618 67.710938 616.109375 66.816406 C 613.964844 72.242188 608.675781 76.078125 602.492188 76.078125 C 601.695312 76.078125 600.914062 76.011719 600.152344 75.890625 C 597.992188 81.269531 592.722656 85.070312 586.570312 85.070312 C 581.257812 85.070312 576.605469 82.238281 574.039062 78 C 571.394531 80.632812 567.746094 82.257812 563.71875 82.257812 C 555.636719 82.257812 549.082031 75.707031 549.082031 67.625 C 549.082031 66.796875 549.152344 65.984375 549.285156 65.195312 C 549.039062 65.207031 548.792969 65.214844 548.546875 65.214844 C 545.710938 65.214844 543.066406 64.410156 540.828125 63.015625 C 540.128906 70.449219 533.871094 76.265625 526.257812 76.265625 C 524.800781 76.265625 523.390625 76.050781 522.066406 75.65625 C 519.914062 81.0625 514.632812 84.882812 508.460938 84.882812 C 500.378906 84.882812 493.828125 78.328125 493.828125 70.246094 C 493.828125 69.742188 493.851562 69.242188 493.902344 68.75 C 493.09375 68.886719 492.265625 68.960938 491.417969 68.960938 C 486.96875 68.960938 482.984375 66.976562 480.300781 63.84375 C 477.660156 66.429688 474.050781 68.023438 470.0625 68.023438 C 467.425781 68.023438 464.953125 67.328125 462.816406 66.105469 Z M 462.816406 66.105469 " fill-opacity="1" fill-rule="evenodd"/></g><g clip-path="url(#f5fa2afee2)"><path fill="#dec5ec" d="M 475.894531 85.941406 L 475.894531 55.96875 C 473.640625 54.839844 471.097656 54.203125 468.40625 54.203125 C 465.195312 54.203125 462.199219 55.109375 459.648438 56.675781 C 456.777344 51.582031 451.316406 48.144531 445.050781 48.144531 C 435.800781 48.144531 428.300781 55.644531 428.300781 64.894531 C 428.300781 74.144531 435.800781 81.644531 445.050781 81.644531 C 448.261719 81.644531 451.261719 80.738281 453.808594 79.171875 C 456.683594 84.265625 462.144531 87.707031 468.40625 87.707031 C 471.097656 87.707031 473.640625 87.070312 475.894531 85.941406 Z M 273.492188 45.300781 L 249.738281 45.300781 C 246.726562 48.332031 244.867188 52.503906 244.867188 57.113281 C 244.867188 66.363281 252.363281 73.863281 261.617188 73.863281 C 262.5625 73.863281 263.488281 73.78125 264.394531 73.632812 C 266.25 80.863281 272.808594 86.207031 280.621094 86.207031 C 289.871094 86.207031 297.367188 78.707031 297.367188 69.453125 C 297.367188 60.203125 289.871094 52.703125 280.621094 52.703125 C 279.671875 52.703125 278.746094 52.785156 277.839844 52.9375 C 277.089844 50.003906 275.5625 47.382812 273.492188 45.300781 Z M 222.464844 56.492188 L 222.464844 89.082031 C 223.714844 89.378906 225.015625 89.535156 226.351562 89.535156 C 235.605469 89.535156 243.101562 82.035156 243.101562 72.785156 C 243.101562 63.535156 235.605469 56.035156 226.351562 56.035156 C 225.015625 56.035156 223.714844 56.195312 222.464844 56.492188 Z M 413.277344 95.230469 C 422.527344 95.230469 430.027344 87.730469 430.027344 78.480469 C 430.027344 69.230469 422.527344 61.730469 413.277344 61.730469 C 412.351562 61.730469 411.449219 61.808594 410.566406 61.949219 C 408.5625 54.945312 402.109375 49.816406 394.460938 49.816406 C 386.269531 49.816406 379.449219 55.699219 377.996094 63.472656 C 377.5 63.425781 376.996094 63.402344 376.484375 63.402344 C 367.234375 63.402344 359.734375 70.902344 359.734375 80.152344 C 359.734375 89.402344 367.234375 96.902344 376.484375 96.902344 C 384.675781 96.902344 391.496094 91.019531 392.945312 83.246094 C 393.445312 83.292969 393.949219 83.316406 394.460938 83.316406 C 395.382812 83.316406 396.289062 83.238281 397.167969 83.097656 C 399.175781 90.101562 405.625 95.230469 413.277344 95.230469 Z M 338.019531 91.886719 C 347.269531 91.886719 354.769531 84.386719 354.769531 75.136719 C 354.769531 65.886719 347.269531 58.386719 338.019531 58.386719 C 335.90625 58.386719 333.886719 58.777344 332.027344 59.492188 C 330.34375 52.019531 323.667969 46.4375 315.6875 46.4375 C 306.4375 46.4375 298.9375 53.9375 298.9375 63.1875 C 298.9375 72.4375 306.4375 79.9375 315.6875 79.9375 C 317.796875 79.9375 319.816406 79.542969 321.679688 78.832031 C 323.363281 86.304688 330.039062 91.886719 338.019531 91.886719 Z M 338.019531 91.886719 " fill-opacity="1" fill-rule="evenodd"/></g><g clip-path="url(#f76f7e0115)"><path fill="#c1a0d2" d="M 475.894531 66.105469 L 475.894531 45.300781 L 222.464844 45.300781 L 222.464844 64.207031 C 223.890625 64.667969 225.410156 64.921875 226.992188 64.921875 C 227.460938 64.921875 227.929688 64.894531 228.390625 64.851562 C 228.324219 65.414062 228.289062 65.984375 228.289062 66.566406 C 228.289062 74.648438 234.839844 81.203125 242.925781 81.203125 C 251.007812 81.203125 257.558594 74.648438 257.558594 66.566406 C 257.558594 65.542969 257.457031 64.542969 257.253906 63.578125 C 257.894531 63.664062 258.542969 63.707031 259.207031 63.707031 C 262.875 63.707031 266.226562 62.359375 268.796875 60.128906 C 271.386719 64.253906 275.972656 67 281.203125 67 C 282.628906 67 284.003906 66.792969 285.308594 66.414062 C 287.050781 72.550781 292.695312 77.046875 299.390625 77.046875 C 305.5625 77.046875 310.839844 73.226562 312.992188 67.820312 C 314.074219 68.074219 315.203125 68.210938 316.363281 68.210938 C 318.59375 68.210938 320.710938 67.710938 322.601562 66.816406 C 324.746094 72.242188 330.035156 76.078125 336.21875 76.078125 C 337.015625 76.078125 337.796875 76.011719 338.558594 75.890625 C 340.71875 81.269531 345.988281 85.070312 352.140625 85.070312 C 357.453125 85.070312 362.105469 82.238281 364.671875 78 C 367.316406 80.632812 370.964844 82.257812 374.992188 82.257812 C 383.074219 82.257812 389.628906 75.707031 389.628906 67.625 C 389.628906 66.796875 389.558594 65.984375 389.425781 65.195312 C 389.667969 65.207031 389.917969 65.214844 390.164062 65.214844 C 393 65.214844 395.644531 64.410156 397.882812 63.015625 C 398.582031 70.449219 404.839844 76.265625 412.453125 76.265625 C 413.910156 76.265625 415.320312 76.050781 416.644531 75.65625 C 418.796875 81.0625 424.078125 84.882812 430.25 84.882812 C 438.332031 84.882812 444.882812 78.328125 444.882812 70.246094 C 444.882812 69.742188 444.859375 69.242188 444.808594 68.75 C 445.617188 68.886719 446.445312 68.960938 447.292969 68.960938 C 451.742188 68.960938 455.722656 66.976562 458.410156 63.84375 C 461.046875 66.429688 464.660156 68.023438 468.648438 68.023438 C 471.285156 68.023438 473.757812 67.328125 475.894531 66.105469 Z M 475.894531 66.105469 " fill-opacity="1" fill-rule="evenodd"/></g><g clip-path="url(#1a05f6c1e8)"><path fill="#dec5ec" d="M -25.421875 86.265625 L -25.421875 56.292969 C -23.167969 55.164062 -20.625 54.53125 -17.933594 54.53125 C -14.722656 54.53125 -11.722656 55.433594 -9.175781 57 C -6.300781 51.90625 -0.839844 48.46875 5.421875 48.46875 C 14.671875 48.46875 22.171875 55.96875 22.171875 65.21875 C 22.171875 74.46875 14.671875 81.96875 5.421875 81.96875 C 2.210938 81.96875 -0.789062 81.0625 -3.335938 79.496094 C -6.210938 84.589844 -11.667969 88.03125 -17.933594 88.03125 C -20.625 88.03125 -23.167969 87.394531 -25.421875 86.265625 Z M 176.980469 45.625 L 200.734375 45.625 C 203.746094 48.65625 205.609375 52.828125 205.609375 57.4375 C 205.609375 66.6875 198.109375 74.1875 188.859375 74.1875 C 187.910156 74.1875 186.984375 74.109375 186.082031 73.957031 C 184.222656 81.1875 177.664062 86.53125 169.855469 86.53125 C 160.605469 86.53125 153.105469 79.03125 153.105469 69.78125 C 153.105469 60.53125 160.605469 53.03125 169.855469 53.03125 C 170.800781 53.03125 171.726562 53.109375 172.632812 53.261719 C 173.386719 50.328125 174.910156 47.707031 176.980469 45.625 Z M 228.007812 56.816406 L 228.007812 89.40625 C 226.761719 89.703125 225.457031 89.859375 224.121094 89.859375 C 214.871094 89.859375 207.371094 82.363281 207.371094 73.109375 C 207.371094 63.859375 214.871094 56.359375 224.121094 56.359375 C 225.457031 56.359375 226.761719 56.519531 228.007812 56.816406 Z M 37.199219 95.554688 C 27.945312 95.554688 20.449219 88.054688 20.449219 78.804688 C 20.449219 69.554688 27.945312 62.054688 37.199219 62.054688 C 38.121094 62.054688 39.023438 62.132812 39.90625 62.273438 C 41.910156 55.269531 48.363281 50.140625 56.011719 50.140625 C 64.207031 50.140625 71.023438 56.023438 72.476562 63.796875 C 72.972656 63.75 73.480469 63.726562 73.988281 63.726562 C 83.242188 63.726562 90.738281 71.226562 90.738281 80.476562 C 90.738281 89.726562 83.242188 97.226562 73.988281 97.226562 C 65.796875 97.226562 58.976562 91.34375 57.527344 83.570312 C 57.027344 83.617188 56.523438 83.640625 56.011719 83.640625 C 55.089844 83.640625 54.183594 83.5625 53.304688 83.421875 C 51.300781 90.425781 44.847656 95.554688 37.199219 95.554688 Z M 112.453125 92.210938 C 103.203125 92.210938 95.703125 84.710938 95.703125 75.460938 C 95.703125 66.210938 103.203125 58.710938 112.453125 58.710938 C 114.566406 58.710938 116.585938 59.101562 118.445312 59.816406 C 120.128906 52.34375 126.808594 46.761719 134.789062 46.761719 C 144.039062 46.761719 151.539062 54.261719 151.539062 63.511719 C 151.539062 72.761719 144.039062 80.261719 134.789062 80.261719 C 132.675781 80.261719 130.65625 79.871094 128.792969 79.15625 C 127.113281 86.628906 120.433594 92.210938 112.453125 92.210938 Z M 112.453125 92.210938 " fill-opacity="1" fill-rule="evenodd"/></g><g clip-path="url(#51c9efb89e)"><path fill="#c1a0d2" d="M -25.421875 66.429688 L -25.421875 45.625 L 228.007812 45.625 L 228.007812 64.53125 C 226.582031 64.992188 225.0625 65.246094 223.484375 65.246094 C 223.011719 65.246094 222.542969 65.222656 222.082031 65.175781 C 222.148438 65.738281 222.183594 66.308594 222.183594 66.890625 C 222.183594 74.972656 215.632812 81.527344 207.550781 81.527344 C 199.464844 81.527344 192.914062 74.972656 192.914062 66.890625 C 192.914062 65.867188 193.019531 64.867188 193.21875 63.902344 C 192.578125 63.988281 191.929688 64.03125 191.265625 64.03125 C 187.597656 64.03125 184.246094 62.683594 181.675781 60.453125 C 179.089844 64.578125 174.5 67.324219 169.269531 67.324219 C 167.84375 67.324219 166.46875 67.117188 165.164062 66.738281 C 163.421875 72.875 157.777344 77.371094 151.085938 77.371094 C 144.910156 77.371094 139.632812 73.550781 137.480469 68.144531 C 136.398438 68.398438 135.269531 68.535156 134.109375 68.535156 C 131.878906 68.535156 129.765625 68.035156 127.871094 67.140625 C 125.726562 72.566406 120.441406 76.402344 114.253906 76.402344 C 113.457031 76.402344 112.675781 76.335938 111.917969 76.214844 C 109.753906 81.59375 104.488281 85.394531 98.332031 85.394531 C 93.019531 85.394531 88.367188 82.5625 85.804688 78.324219 C 83.15625 80.957031 79.507812 82.582031 75.480469 82.582031 C 67.398438 82.582031 60.847656 76.03125 60.847656 67.949219 C 60.847656 67.121094 60.917969 66.308594 61.046875 65.519531 C 60.804688 65.53125 60.554688 65.539062 60.308594 65.539062 C 57.476562 65.539062 54.832031 64.734375 52.589844 63.339844 C 51.894531 70.773438 45.636719 76.589844 38.019531 76.589844 C 36.5625 76.589844 35.15625 76.375 33.828125 75.980469 C 31.675781 81.386719 26.398438 85.207031 20.226562 85.207031 C 12.140625 85.207031 5.589844 78.652344 5.589844 70.570312 C 5.589844 70.066406 5.617188 69.566406 5.664062 69.074219 C 4.855469 69.210938 4.027344 69.285156 3.179688 69.285156 C -1.265625 69.285156 -5.25 67.300781 -7.9375 64.171875 C -10.574219 66.753906 -14.1875 68.347656 -18.171875 68.347656 C -20.808594 68.347656 -23.285156 67.652344 -25.421875 66.429688 Z M -25.421875 66.429688 " fill-opacity="1" fill-rule="evenodd"/></g><g clip-path="url(#bf5ee4015c)"><path fill="#c1a0d2" d="M -107.132812 -154.25 L 1265.363281 -154.25 L 1265.363281 49.671875 L -107.132812 49.671875 Z M -107.132812 -154.25 " fill-opacity="1" fill-rule="nonzero"/></g></svg>